<?xml version="1.0" encoding="UTF-8"?><svg xmlns="http://www.w3.org/2000/svg" width="300" height="300" viewBox="0 0 94.26 94.26" shape-rendering="geometricPrecision" text-rendering="geometricPrecision" image-rendering="optimizeQuality" fill-rule="evenodd" clip-rule="evenodd"><defs><style>.fil0{fill:#0054a3}</style></defs><g id="图层_x0020_1"><path class="fil0" d="M47.13 2.7c24.53 0 44.43 19.89 44.43 44.43 0 24.53-19.9 44.43-44.43 44.43-24.54 0-44.43-19.9-44.43-44.43C2.7 22.59 22.59 2.7 47.13 2.7zm0 1.61c23.64 0 42.82 19.18 42.82 42.82S70.77 89.95 47.13 89.95 4.31 70.77 4.31 47.13 23.49 4.31 47.13 4.31z"/><path class="fil0" d="M46.97 24.39l-3.58-3.81s-22.7 2.87-23.27 25c-.58 22.13 17.24 27.3 20.69 28.17 0 0-11.68-5.53-11.41-19.81.28-14.28 7.14-17.44 14.01-21.01l3.52 4.46v.07l.02-.03.03.03v-.07l3.52-4.46c6.87 3.57 13.73 6.73 14.01 21.01.27 14.28-11.41 19.81-11.41 19.81 3.45-.87 21.27-6.04 20.69-28.17-.57-22.13-23.27-25-23.27-25l-3.55 3.81z"/><path class="fil0" d="M46.98 48.58l-2.06-3.29s-4.53 3.98-3.98 14.01c.55 10.02 2.88 14.14 4.8 15.1H48.4c1.93-.96 4.26-5.08 4.81-15.1.55-10.03-3.98-14.01-3.98-14.01l-2.06 3.29-.1.18-.09-.18z"/><path class="fil0" d="M47.13 0c26.02 0 47.13 21.1 47.13 47.13 0 26.02-21.11 47.13-47.13 47.13C21.1 94.26 0 73.15 0 47.13 0 21.1 21.1 0 47.13 0zm0 1.34c25.28 0 45.79 20.51 45.79 45.79 0 25.28-20.51 45.79-45.79 45.79-25.28 0-45.79-20.51-45.79-45.79 0-25.28 20.51-45.79 45.79-45.79z"/><path d="M17.97 64.4l.23.48-2.08 1.01c-.36.18-.67.28-.93.3-.25.02-.49-.04-.73-.19s-.44-.39-.61-.74c-.17-.34-.24-.64-.23-.91.01-.28.1-.51.28-.71.18-.2.45-.39.84-.58l2.08-1.02.23.48-2.08 1.02c-.31.15-.53.29-.65.42s-.19.29-.2.47c-.01.18.04.37.14.58.17.35.37.56.6.63.23.07.57-.01 1.03-.23l2.08-1.01zm-2.91 2.79l3.41-2.13.29.46-1.56 3.46 2.67-1.67.27.43-3.4 2.13-.29-.46 1.56-3.46-2.68 1.67-.27-.43zm2.25 3.3l3.17-2.47.33.42-3.17 2.47-.33-.42zm1.61 1.9l2.02-3.81.37.44-1.51 2.7c-.13.22-.24.41-.36.59.2-.1.42-.19.64-.27l2.91-1.1.35.41-4.05 1.46-.37-.42zm1.86 1.98l2.79-2.89 2.09 2.01-.33.34-1.7-1.64-.86.89 1.6 1.54-.33.33-1.59-1.53-.96.98 1.78 1.71-.33.34-2.16-2.08zm2.67 2.43l2.47-3.16 1.4 1.09c.28.22.47.42.58.59.1.17.14.36.11.58-.02.21-.1.4-.24.57-.17.23-.39.36-.66.4-.26.04-.56-.04-.9-.23.07.14.11.26.13.35.03.21.04.44.02.7l-.13 1.29-.52-.41.09-.99c.03-.28.04-.51.04-.67 0-.16-.01-.29-.04-.38-.04-.09-.08-.16-.13-.23-.04-.05-.11-.11-.22-.2l-.49-.38-1.09 1.41-.42-.33zm1.8-1.44l.9.7c.19.15.35.25.49.29.14.05.27.05.39 0 .13-.04.23-.11.31-.21.12-.15.16-.32.13-.5-.04-.18-.17-.36-.4-.54l-1-.79-.82 1.05zm1.87 2.53l.45.23c-.09.18-.14.35-.13.51 0 .15.05.31.16.48a1.576 1.576 0 0 0 .95.65c.17.04.31.03.43-.02s.22-.12.28-.22c.07-.11.1-.22.09-.34-.01-.12-.07-.25-.17-.4-.07-.09-.24-.27-.5-.55-.26-.27-.43-.48-.51-.63a.976.976 0 0 1-.15-.55c0-.17.05-.34.15-.49.11-.17.26-.3.45-.39.2-.08.41-.1.65-.06.23.04.46.14.69.29.25.16.44.34.58.55.14.2.21.41.21.64 0 .22-.06.43-.18.63l-.45-.24c.12-.23.14-.44.08-.63-.06-.2-.22-.38-.48-.55-.27-.17-.5-.25-.69-.23-.18.02-.32.1-.41.24-.08.12-.1.24-.07.38.04.13.21.36.52.67.31.32.51.56.61.7.13.22.2.43.21.63 0 .2-.06.39-.17.57-.12.18-.28.31-.49.4-.2.09-.43.12-.68.08-.25-.03-.49-.13-.73-.29-.31-.19-.53-.4-.68-.62a1.27 1.27 0 0 1-.22-.72c0-.25.07-.49.2-.72zm2.57 3.08l1.83-3.58.47.25-1.82 3.57-.48-.24zm2.09 1.05l1.5-3.21-1.2-.56.2-.43 2.88 1.35-.2.42-1.2-.56-1.5 3.22-.48-.23zm3.66 1.41l.55-1.61-.71-2.69.6.21.36 1.41c.07.26.12.51.17.77.18-.16.4-.34.65-.53l1.12-.86.58.2L36.49 82l-.55 1.6-.5-.17zm6.99-.3c.06-.66.28-1.17.67-1.51.39-.35.87-.49 1.43-.44.37.03.7.15.98.35.28.2.48.47.61.79.13.33.18.7.14 1.1-.03.4-.15.76-.34 1.06-.19.31-.44.53-.76.67-.31.14-.65.19-.99.16-.38-.03-.71-.15-.99-.36s-.48-.48-.61-.8c-.12-.33-.17-.67-.14-1.02zm.55.06c-.05.48.05.87.29 1.17.23.3.54.46.93.5.4.03.74-.08 1.02-.34.29-.25.45-.64.49-1.15.03-.33 0-.62-.09-.87s-.23-.45-.43-.6c-.2-.15-.43-.24-.7-.27-.37-.03-.7.07-1 .31-.29.23-.46.65-.51 1.25zm3.68 2.29l-.14-4.01 2.7-.09.02.47-2.17.07.04 1.25 1.88-.06.02.47-1.88.06.06 1.83-.53.01zm6.09-1.69l.48-.14c.06.2.15.35.26.46.11.11.26.19.45.23a1.668 1.668 0 0 0 1.14-.19.71.71 0 0 0 .29-.31c.05-.12.07-.24.05-.36a.564.564 0 0 0-.17-.3c-.09-.08-.23-.13-.4-.17-.12-.02-.36-.03-.74-.05-.38-.02-.65-.05-.81-.1-.21-.06-.37-.16-.49-.29a.927.927 0 0 1-.24-.46c-.04-.2-.01-.4.06-.59.08-.2.22-.36.42-.49.2-.13.43-.23.7-.28.29-.05.56-.06.8-.01.24.05.44.16.6.32.15.16.26.35.31.58l-.49.14c-.08-.24-.21-.41-.39-.51-.18-.1-.42-.12-.72-.06-.32.06-.54.17-.66.31-.12.14-.16.3-.13.46.03.14.1.25.22.32s.4.11.84.13c.44.01.75.04.92.08.25.06.45.16.59.3.14.14.23.32.27.53.04.21.02.42-.07.62-.08.21-.22.39-.43.54-.2.14-.45.24-.73.3a2.4 2.4 0 0 1-.92.02c-.26-.06-.48-.18-.66-.36-.18-.18-.29-.41-.35-.67zm3.24-1.25c-.19-.64-.16-1.19.08-1.65.24-.46.64-.77 1.18-.93.36-.1.7-.11 1.04-.02.33.09.62.26.86.53.23.26.41.58.52.96.11.4.13.77.06 1.12-.07.36-.22.65-.47.9a1.9 1.9 0 0 1-.87.5c-.36.11-.71.11-1.05.02-.33-.09-.62-.27-.85-.53-.24-.26-.4-.56-.5-.9zm.53-.14c.13.46.36.79.69.99.32.19.68.23 1.05.13.39-.11.67-.34.84-.68.17-.34.18-.76.04-1.25-.09-.32-.22-.58-.4-.78-.17-.2-.38-.34-.62-.41a1.33 1.33 0 0 0-.74 0c-.36.11-.64.32-.83.64-.19.33-.2.78-.03 1.36zm5.12-4.01l.49-.2.87 2.15c.15.37.23.69.24.94 0 .25-.08.5-.24.72-.17.23-.43.42-.79.56-.35.14-.65.2-.92.16-.28-.03-.5-.14-.69-.33-.19-.18-.36-.48-.52-.87l-.87-2.15.5-.2.87 2.15c.13.32.25.55.37.68.13.13.28.2.46.23.17.02.37-.01.58-.09.36-.15.59-.34.67-.56.09-.23.04-.58-.15-1.04l-.87-2.15zm3.8 2.58l-1.61-3.16-1.18.6-.21-.41 2.83-1.45.21.42-1.18.6 1.61 3.16-.47.24zm2.51-1.34l-2.36-3.25.43-.32.97 1.34 1.68-1.22-.97-1.34.43-.31 2.36 3.25-.43.31-1.11-1.53-1.68 1.22 1.11 1.53-.43.32zm5.56-6.35l.48-.27c.22.39.31.77.26 1.14-.05.36-.22.69-.52.98-.31.3-.63.48-.94.54-.32.06-.65.02-.98-.12-.33-.14-.63-.35-.9-.63-.29-.3-.49-.61-.59-.95-.1-.33-.1-.66 0-.98.1-.32.28-.61.53-.85.29-.28.6-.44.94-.48.34-.05.68.03 1.01.22l-.29.45c-.27-.15-.51-.21-.73-.18-.22.03-.43.13-.62.32-.22.21-.35.45-.4.7-.05.25-.01.49.1.73s.26.45.44.64c.24.25.48.43.73.54.25.11.49.14.73.09.24-.06.45-.17.62-.34.22-.2.34-.44.36-.71.03-.26-.04-.54-.23-.84zm1.74.32l-3.08-2.58.34-.41 1.27 1.06 1.33-1.58-1.26-1.07.34-.41 3.07 2.58-.34.41-1.45-1.21-1.33 1.59 1.45 1.21-.34.41zm2.57-3.04l-3.21-2.42.32-.42 3.21 2.41-.32.43zm.8-1.01l-3.4-2.13.29-.46 3.79-.12-2.67-1.67.27-.43 3.4 2.13-.29.46-3.79.12 2.68 1.67-.28.43zm1.93-2.88l-2.93-3.15.25-.52 4.33.29-.27.54-1.29-.12-.74 1.52.9.93-.25.51zm-.97-1.77l.6-1.23-1.19-.11c-.36-.03-.65-.07-.88-.11.21.17.41.35.6.54l.87.91z" fill="#0054a3" fill-rule="nonzero"/><path class="fil0" d="M9.47 44.01l.04-2.37s.47-.09.43.22c-.04.3.09 2.49.09 2.49l1.2 1.03.77.56-.21-2.49-.22-.95s.44.34.51.73c.06.4.11.91.11.91l-.02.65s.11.45.19.53a3 3 0 0 1 .23.33s0 .27.04.49c.03.21.1.09.24.35.14.26.15.61.25.49.1-.13.21-.08.24-.25.02-.17.01-.52.07-.31.06.2.16.18.26.17.09-.01.42.11.3-.09-.12-.19.12-.2-.17-.38-.29-.19-.31-.3-.5-.48-.18-.18-.42-.43-.42-.43s-.24-.2.09-.32c.33-.12.48-.34.47-.03-.01.31.12.41.23.61.11.2.12.29.14.37.02.07.04.21.2.05.16-.16.21-.43.38-.18.17.24.44.24.45.63.01.39.04.78.22.5.19-.28.11-.66.45-.52.35.14.01.04.2.28.18.24.03.29.56.32.52.03.71-.25.93.12.21.36.17 1.03-.13 1.03-.3 0-.43-.11-.66.04-.24.16-.67-.06-.73-.25-.07-.2-.41-.56-.48-.3-.06.25-.08.86-.38.53-.3-.32-.35-.88-.56-.71-.22.18-.22-.02-.56.02-.34.05-.69-.04-.58.11.11.15.11.39.13.63.02.23.28.64-.13.79-.41.15-.28.82-.62-.21-.35-1.04-.07-1.36-.35-1.68-.27-.32-.08-.47-.4-.52-.33-.04-.35-.21-.63-.28-.28-.06-.43-.3-.66-.19-.24.11-.45-.04-.26.39s.09.75.22.9c.12.15.47.13.02.58-.45.45-.73.86-.9.47-.18-.38-.18-1.89-.18-1.89s.28-.28.05-.6c-.24-.32-.18-.39-.5-.56-.32-.17-1.69-1.12-2.02-1.14-.32-.02-1.11-.47-.1-.8 1.01-.32.79-.45 1.26-.04.48.41 1.08.6 1.08.6s.34.28.32.05zM12.56 50.59s.41-.91.99-.88c.58.02.47.23 1.11.34.65.11.65-.24 1.1.15.45.39.84.67.79.88-.04.22.2.58-.6.35-.79-.24-.6-.28-1.24-.37-.65-.08-.73-.06-1.1-.06-.36 0-.56-.07-1.05-.41zM11.32 41.94s.06-.75.55-.49c.5.26.73.32 1.06.62.32.3 1.22.52 1.97.86.75.35 1.98.62 2.49.82.52.19.71.6.82.69.1.08-.05.34-.33.49-.27.15-.6.43-.83.69-.24.26-.73.21-.37-.13.37-.34.54-.52.45-.75-.08-.24.09-.28-.38-.39-.48-.11-.5-.17-1.29-.56-.8-.39-.65-.47-1.55-.82-.9-.34-.9-.62-1.33-.64-.43-.02-.3-.13-.53-.19-.24-.07-.73.32-.73-.2zM24.28 14.58s-.51-1.16-.64-1.37c-.13-.22-.05-.56.51-.39.56.17 1.03.26.78.6-.26.35.12.99.12.99s.78-.08.69-1.07c-.08-.99.17-1.64.17-1.64s-.08-1.25.3-1.25h.99s1.12-.25.56.13c-.56.39-1.2.56-1.29.78-.08.21-.23.58-.21.77.02.2 0 .37 0 .54 0 .17-.11.54-.11.54s-.34 1.05-.49 1.16c-.15.11-.48.36-.48.36s0 .18.11.48.28.6.54.71c.26.1.38.19.38.19s.18.41.15.73c-.02.32.09.6.09.6s.32.71-.09.61c-.4-.11-.51-.33-.51-.33s-.04-.04-.19.26-.11.39-.2.65c-.08.25 0 .41-.23.6-.24.19-.3-.07-.65.11-.34.17-.68-.11-.15-.61.54-.49.67-.81.8-.98.13-.18.1-.48.02-.84-.09-.37-.09-.65-.13-.95-.04-.3-.32-.9-.32-.9s.02.34-.35.62c-.36.28-.98.52-.94.3.04-.21-.17-.36.39-.73.55-.37.7-.58.38-.67zM27.27 18.09l-1.76 3.33-.88 1.94s-.71.32-.22.47c.49.15 1.27-.17 1.35-.6.09-.43.2-1.03.3-1.72.11-.69 1.53-3.29 1.21-3.42z"/><path class="fil0" d="M27.01 15.01s-1.18-.08-.9.11c.28.19.45.28.4.52-.04.23-.02.21.2.47.21.26.3.26.32.6.02.35-.06.65.15.78.22.13.24.28.43.47.19.19.3.75.64.99.35.24.3-.04.39.52.09.55.56.19.15.64-.41.45-.6 1.14-.6 1.29 0 .15-.02.3-.26.54-.23.24-.62.39-.15.58.47.19.8-.04 1.1-.28.3-.24.17-.56.1-.84-.06-.28.11-.75.3-.73.2.02.22.11.48.47.25.37 1.24 1.27 1.22 1.62-.02.34-.02.25-.32.3-.3.04-.86.32-.43.3.43-.02.86-.17 1.31.02.45.19 1.33.28 1.16-.04-.17-.33-.24-.69-.9-1.51-.67-.82-1.49-1.83-1.64-2-.15-.17-.02-.32.18-.64.19-.33.6-.54.23-.74-.36-.19-.62-.1-.68.2-.07.3-.13.41-.43.11-.3-.31-.76-1.1-.95-1.38-.19-.28-.23-.8-.47-.82-.24-.02-.22-.13-.28-.66-.06-.54-.04-1.1.02-1.25.07-.15.41-.2.6-.63.2-.43.3-.75.39-.99.08-.23.24-.75-.07-.73-.3.03-.42.11-.4.41.02.3-.2.54-.09.69.11.15.17.41-.06.65-.24.23-.45.47-.54.17-.09-.3-.21-.65-.13-1.03.09-.39-.04-.41-.3-.31-.26.11-.58-.04-.32.28.26.33.23.89.36 1.06.13.17-.02.45-.21.79z"/><path class="fil0" d="M28.7 16.84s.56-.84.91-1.27c.34-.43.79-1.09.9-1.24.11-.16-.22-.86-.45-.39-.24.47-.59.56-.52.97.08.4-.23.68-.45.92-.21.24-.39 1.01-.39 1.01zM67.73 12.73s-1.84 3.83-2.27 3.88l-.86.08s-1.42-.08-1.93-.56c-.52-.47-.56-.43-.65-.13-.08.3.05.39.3.48.26.08.75.38 1.18.49.43.11.73.04.71.32-.02.28-.38.52-.92.89-.54.36-1.42.77-1.89.9s-.82.19-1.31.21c-.49.03-.79-.17-.51.26.27.43.15.56.94.43.79-.13 1.57-.39 2.3-.69.73-.3 1.54-.75 1.89-1.16.34-.41.06-.51.7-.51.65 0 1.01.13 1.53-.05.51-.17.34-.32.88-.32s.84.02.81-.26c-.02-.28-.1-.41-.27-.43-.18-.02-.24-.36-.24-.36s-.3-.13-.34.25c-.05.39 0 .39-.58.39h-1.25s-.17-.15.32-.62c.5-.48 1.4-1.4 1.48-1.85.09-.45.35-1.4-.02-1.64zM63.16 20.39c.17.07.64.88.88 1.25.24.36.8.69.47.77-.32.09-.51.35-.58.45-.06.11-.06.35.65.24.71-.11 1.24-.02.83-.71-.4-.69-.45-.77-.85-1.12-.41-.34-.84-.79-.99-.88-.15-.09-.34-.28-.41 0zM83.19 40.05s-.34.69-.3 1.12c.04.43-.3 1.68-.56 1.68-.26 0-.87.06-.66-.29.2-.36.32-.67.11-.88-.2-.2-.32-.15-.49.04-.17.18-.36.44-.57.71-.2.27-.29.77-.47.85-.18.07-.11.4.15.45.26.04.7-.05.9-.14.2-.1.39-.23.67-.05.28.19.62.12.38.33-.23.2-.69.28-.32.42.38.14.32.23.81.18.48-.05.59-.17.64.02.05.19.44 1.11.23 1.15-.22.04-.31.56-.56.3-.26-.26-1.29-.51-1.55-.64s-1.07-.69-1.07-.69l-.56-.47s-.86.17-.3.64 1.5.99 2.1 1.29c.6.3 1.55.35.86.52-.69.17-.34.43-1.11.38-.78-.04-1.08.09-1.34.09-.25 0-.42.26-1.03-.3-.6-.56-1.89-.95-2.4-1.25-.52-.3-1.03-.43-1.03-.43s-.65.3-.17.73c.47.43.3.39 1.24.69.95.3 1.85.56 1.89.82.04.26 1.29.3.73.69-.56.38-.81.9-1.2 1.07-.39.17-.77 1.03-1.16.65-.39-.39-.86-.6-1.03-1.08-.17-.47-.47-.64-.47-.64s-.35.3 0 .9c.34.6.77 1.12.68 1.38-.08.26.13.56.65.64.51.09.64-.04.99-.47.34-.43.81-.9 1.2-1.38.38-.47.54-.9.73-.99.19-.08.4-.07.69.1.28.17.53.32.23.34-.3.02-.39.15-.5.06-.11-.08-.47-.11-.34.01.12.12.28.59.54.7.26.11.86.23 1.27.41.41.17.66-.46.45-.74-.22-.27-.04-.19-.5-.55-.45-.37-.92-.69-.92-.69s-.15-.17.54-.15c.69.02.75-.2 1.24.02.5.21.54-.17 1.03.19.5.37.97.41 1.23.17.25-.23.19-.43.19-.64 0-.22 0-.41.3-.47.3-.07-.51-.09.82-.09s.77.24 1.33.06c.56-.17.38-.19.94-.19.56 0 1.23-.54.65-.97-.58-.43-.48-.41-1.18-.73-.71-.32-.91-.51-1.25-.51-.34 0-.47-.07-.51-.35-.05-.28-.28-.54-.07-.69.22-.15.02-.21.75-.13.73.09 1.01.03 1.42-.1.41-.13.56-.33.75-.61.19-.28.28-1.11-.09-.92-.36.19-.42.32-.55.52-.13.19-.6.27-.99.3-.39.02-.97.04-1.35-.05-.39-.08-.75-.1-1.03-.3-.28-.19-.63-.34-.82-.13-.19.22-.45.67 0 .71.45.05.62.15.69.39.06.24.45.69-.02.69-.48 0-.5-.11-.78-.15-.28-.05-.34-.07-.73-.05-.38.03-.45-.12-.28-.47.18-.34.33-.79.45-1.22.13-.43-.04-.41.03-.86.06-.46.45-1.08-.24-.95zm2.58 4.9c-.11 0-.05.45-.2.54-.15.09-.32.19-.15.47.17.28.24.37.69.24.45-.13.88-.02 1.18-.02.3 0 .43-.43.24-.67-.2-.23.02.02-.43-.23-.45-.26-.28-.28-.65-.28-.36 0-.1-.39-.68-.05zm-1.14-.51l-.52.28s-.25.43.02.51c.28.09.22.33.63.02.41-.3.66-.21.49-.53-.17-.33.07-.41-.28-.35l-.34.07z"/></g></svg>